<svg xmlns="http://www.w3.org/2000/svg" viewBox="0 0 24 24"><path fill="#e4e5e6" d="M21.5 10.999c0-5.336-4.399-9.645-9.769-9.496-4.993.138-9.14 4.329-9.23 9.323-.058 3.266 1.537 6.156 3.998 7.91v2.263a1.5 1.5 0 0 0 1.5 1.5h8a1.5 1.5 0 0 0 1.5-1.5v-2.263c2.419-1.723 4.001-4.542 4.001-7.737z"/><path fill="#5c6671" d="M13.521 10.499c.146-.979 3.521-3.375 4-1 .23 1.143-.708 3-2 3s-2.169-.865-2-2zm-3.042.018c-.146-.979-3.521-3.375-4-1-.23 1.143.708 3 2 3s2.169-.865 2-2z"/><path fill="#fff" d="M7.552 17.999C5.969 16.097 5 13.668 5 10.999c0-3.935 2.073-7.377 5.179-9.321-4.375.85-7.679 4.698-7.679 9.321a9.48 9.48 0 0 0 4 7.741v2.259a1.5 1.5 0 0 0 1.5 1.5h1v-3.035a11.136 11.136 0 0 1-1.448-1.465z" opacity=".5"/><path d="m11.5 1.999-.544-.435a9.28 9.28 0 0 0-3.13.939L10 2.999l-.5 2 3 1-1.5-1.5.5-2.5zm4.948 16c1.583-1.902 2.552-4.331 2.552-7 0-3.935-2.073-7.377-5.179-9.321 4.375.85 7.679 4.698 7.679 9.321a9.48 9.48 0 0 1-4 7.741v2.259a1.5 1.5 0 0 1-1.5 1.5h-1v-3.035a11.136 11.136 0 0 0 1.448-1.465z" opacity=".1"/><path fill="#303c42" d="M16.361 7.982c-1.382.035-3.195 1.508-3.335 2.443a2.129 2.129 0 0 0 .481 1.733c.461.534 1.194.84 2.013.84.626 0 1.234-.323 1.715-.91.622-.76.941-1.866.775-2.689-.186-.922-.818-1.441-1.649-1.417zm.101 3.474c-.166.203-.509.543-.941.543-.527 0-.984-.18-1.255-.494-.218-.252-.304-.574-.251-.933.059-.367 1.401-1.57 2.375-1.591.264.006.529.063.641.616.107.533-.137 1.332-.569 1.859zm-5.488-1.013C10.834 9.508 9.021 8.034 7.639 8c-.845-.031-1.463.495-1.649 1.418-.166.823.153 1.929.775 2.689.48.586 1.089.91 1.715.91.818 0 1.552-.306 2.013-.84a2.14 2.14 0 0 0 .481-1.734zm-1.24 1.08c-.271.314-.728.494-1.255.494-.433 0-.775-.34-.941-.543-.432-.527-.676-1.326-.568-1.858S7.325 9 7.582 9h.028c.974.021 2.316 1.225 2.375 1.591.053.358-.033.68-.251.932zm3.61 3.113a.499.499 0 0 0-.844.362v1.5c0 .869.421 1.5 1 1.5s1-.631 1-1.5c0-.711-.885-1.605-1.156-1.862zm-2.147-.096a.499.499 0 0 0-.541.097c-.271.257-1.156 1.151-1.156 1.863 0 .869.421 1.5 1 1.5s1-.631 1-1.5V15a.5.5 0 0 0-.303-.46z"/><path fill="#303c42" d="M18.972 3.831a9.974 9.974 0 0 0-7.254-2.828A9.755 9.755 0 0 0 7.63 2.041a.463.463 0 0 0-.111.056c-3.198 1.642-5.45 4.956-5.517 8.721A10.001 10.001 0 0 0 6 18.99V21c0 1.103.897 2 2 2h8c1.103 0 2-.897 2-2v-2.01A10.02 10.02 0 0 0 22 11a9.916 9.916 0 0 0-3.028-7.169zM17.21 18.329a.5.5 0 0 0-.21.407v2.263c0 .551-.448 1-1 1h-.5v-1.5a.5.5 0 0 0-1 0v1.5h-2v-1.5a.5.5 0 0 0-1 0v1.5h-2v-1.5a.5.5 0 0 0-1 0v1.5H8c-.552 0-1-.449-1-1v-2.263a.499.499 0 0 0-.21-.407 9.003 9.003 0 0 1-3.788-7.494c.059-3.356 2.048-6.314 4.882-7.806l1.507.344-.377 1.505a.498.498 0 0 0 .3.585l2.5 1a.5.5 0 0 0 .372-.928l-2.095-.838.395-1.577a.5.5 0 0 0-.374-.609l-.613-.14a8.728 8.728 0 0 1 2.247-.369 8.925 8.925 0 0 1 6.529 2.544 8.926 8.926 0 0 1 2.726 6.452 9.028 9.028 0 0 1-3.791 7.331z"/><linearGradient id="a" x1="2.375" x2="20.476" y1="8.029" y2="16.469" gradientUnits="userSpaceOnUse"><stop offset="0" stop-color="#fff" stop-opacity=".2"/><stop offset="1" stop-color="#fff" stop-opacity="0"/></linearGradient><path fill="url(#a)" d="M18.972 3.831a9.974 9.974 0 0 0-7.254-2.828c-5.264.146-9.622 4.548-9.716 9.814A10.001 10.001 0 0 0 6 18.989v2.01c0 1.103.897 2 2 2h8c1.103 0 2-.897 2-2v-2.01a10.02 10.02 0 0 0 4-7.99 9.916 9.916 0 0 0-3.028-7.168z"/></svg>